<svg height="512" viewBox="0 0 128 128" width="512" xmlns="http://www.w3.org/2000/svg"><g id="Circle_Grid" data-name="Circle Grid"><circle cx="64" cy="64" fill="#f6c863" r="64"/></g><g id="icon"><g fill="#62667c"><path d="m99.158 41.3v42.414h-27.983l-1.162 4.523h-12.026l-1.162-4.523h-27.983v-42.414a3.543 3.543 0 0 1 3.536-3.536h63.243a3.532 3.532 0 0 1 3.537 3.536z"/><path d="m57.645 85.422h-28.803v-1.708h27.983z"/><path d="m99.158 83.714v1.708h-28.803l.82-1.708z"/></g><path d="m45.353 29.22h37.987a0 0 0 0 1 0 0v63.037a0 0 0 0 1 0 0h-37.987a.689.689 0 0 1 -.689-.689v-61.659a.689.689 0 0 1 .689-.689z" fill="#69b0ee" transform="matrix(0 1 -1 0 124.74 -3.264)"/><path d="m105 84.859v1.127a4.254 4.254 0 0 1 -4.254 4.254h-73.492a4.254 4.254 0 0 1 -4.254-4.254v-1.127a1.145 1.145 0 0 1 1.145-1.145h32.68l1.162 2.443h12.026l1.162-2.443h32.68a1.145 1.145 0 0 1 1.145 1.145z" fill="#525666"/><g fill="#eeefee" opacity=".5"><path d="m44.613 80.076h-1.894l28-38.676h1.894z"/><path d="m57.281 80.076h-7.562l28-38.676h7.562z"/></g></g></svg>